# xmcd CD database file
#
# Track frame offsets:
#	150
#	29396
#	55069
#	77522
#	97806
#	118684
#	152966
#	176128
#	197956
#	225056
#	250601
#	276078
#	290746
#	316723
#
# Disc length: 4370 seconds
#
# Revision: 0
# Processed by: cddbd v1.5.1PL0 Copyright (c) Steve Scherf et al.
# Submitted via: CDex 1.51
#
DISCID=b111100e
DTITLE=Jim Gailloreto - Split Decision - Shadow Puppets
DYEAR=2004
DGENRE=Jazz
TTITLE0=Other White Meat
TTITLE1=Shadow Puppets
TTITLE2=Cheshire Cat
TTITLE3=Fancy That
TTITLE4=Doggin' Around
TTITLE5=So Sari
TTITLE6=A Change of Heart
TTITLE7=Hum The Joke
TTITLE8=A Flower is a Lovesome Thing
TTITLE9=Jump St(u)art
TTITLE10=Split Decision
TTITLE11=Velma and Red at Sunset
TTITLE12=End of the Line
TTITLE13=Prelude from Cello Suite No. 1
EXTD=YEAR: 2004
EXTT0=
EXTT1=
EXTT2=
EXTT3=
EXTT4=
EXTT5=
EXTT6=
EXTT7=
EXTT8=
EXTT9=
EXTT10=
EXTT11=
EXTT12=
EXTT13=
PLAYORDER=
